# xmcd
#
# Track frame offsets:
#	300
#	19263
#	41172
#	59555
#	82587
#	104528
#	121408
#	138893
#	168148
#	187087
#	205245
#	232853
#
# Disc length: 3687 seconds
#
# Revision: 1
# Processed by: cddbd v1.5PL3 Copyright (c) Steve Scherf et al.
# Submitted via: audiograbber 1.83.01
#
DISCID=9e0e630c
DTITLE=Various Artist - Oceandrive Blue
DYEAR=2003
DGENRE=
TTITLE0=Drivin'
TTITLE1=Blue
TTITLE2=Summer In Your Eyes
TTITLE3=Island Of My Heart
TTITLE4=Dream Alive
TTITLE5=(Another) Lovesong
TTITLE6=Mermaid
TTITLE7=Move On
TTITLE8=Livin' The City Life
TTITLE9=Turn Back
TTITLE10=Blue (Extended)
TTITLE11=Comfortably Numb
EXTD=
EXTT0=
EXTT1=
EXTT2=
EXTT3=
EXTT4=
EXTT5=
EXTT6=
EXTT7=
EXTT8=
EXTT9=
EXTT10=
EXTT11=
PLAYORDER=
